
<svg width="480px" height="289px" viewBox="0 0 480 289" version="1.1" xmlns="http://www.w3.org/2000/svg" xmlns:xlink="http://www.w3.org/1999/xlink">
    <defs>
        <filter x="-3.6%" y="-50.9%" width="107.2%" height="201.8%" filterUnits="objectBoundingBox" id="filter-1">
            <feGaussianBlur stdDeviation="4.8" in="SourceGraphic"></feGaussianBlur>
        </filter>
        <filter x="-6.3%" y="-120.2%" width="112.6%" height="340.3%" filterUnits="objectBoundingBox" id="filter-2">
            <feGaussianBlur stdDeviation="8" in="SourceGraphic"></feGaussianBlur>
        </filter>
        <rect id="path-3" x="38.4" y="0" width="404" height="263.62069" rx="12.48"></rect>
        <filter x="-0.1%" y="-0.2%" width="100.2%" height="100.8%" filterUnits="objectBoundingBox" id="filter-4">
            <feOffset dx="0" dy="1" in="SourceAlpha" result="shadowOffsetOuter1"></feOffset>
            <feColorMatrix values="0 0 0 0 0   0 0 0 0 0   0 0 0 0 0  0 0 0 0.2 0" type="matrix" in="shadowOffsetOuter1"></feColorMatrix>
        </filter>
        <filter x="-0.2%" y="-0.4%" width="100.5%" height="101.1%" filterUnits="objectBoundingBox" id="filter-5">
            <feGaussianBlur stdDeviation="0.5" in="SourceAlpha" result="shadowBlurInner1"></feGaussianBlur>
            <feOffset dx="0" dy="1" in="shadowBlurInner1" result="shadowOffsetInner1"></feOffset>
            <feComposite in="shadowOffsetInner1" in2="SourceAlpha" operator="arithmetic" k2="-1" k3="1" result="shadowInnerInner1"></feComposite>
            <feColorMatrix values="0 0 0 0 1   0 0 0 0 1   0 0 0 0 1  0 0 0 1 0" type="matrix" in="shadowInnerInner1"></feColorMatrix>
        </filter>
        <linearGradient x1="0%" y1="50%" x2="100%" y2="50%" id="linearGradient-6">
            <stop stop-color="#BCBDBF" offset="0%"></stop>
            <stop stop-color="#D8D8DF" offset="9.75964605%"></stop>
            <stop stop-color="#D8D8DF" offset="88.8213489%"></stop>
            <stop stop-color="#ADAABD" offset="100%"></stop>
        </linearGradient>
        <linearGradient x1="50%" y1="0%" x2="50%" y2="100%" id="linearGradient-7">
            <stop stop-color="#FFFFFF" offset="0%"></stop>
            <stop stop-color="#CDCBD5" offset="100%"></stop>
        </linearGradient>
        <rect id="path-8" x="58" y="18" width="364.8" height="227.672414"></rect>
        <linearGradient x1="50%" y1="2.54922327%" x2="50%" y2="100%" id="linearGradient-10">
            <stop stop-color="#4762E2" offset="0%"></stop>
            <stop stop-color="#2611C9" offset="100%"></stop>
        </linearGradient>
    </defs>
    <g id="Page-1" stroke="none" stroke-width="1" fill="none" fill-rule="evenodd">
        <g id="Blue-Customer-Service-Page" transform="translate(-766.000000, -227.000000)">
            <g id="Group-31" transform="translate(-82.000000, -655.000000)">
                <g id="Group-32" transform="translate(848.000000, 882.000000)">
                    <g id="Group">
                        <g id="shadows" transform="translate(40.800000, 248.359863)" fill="#000000">
                            <rect id="Rectangle-8" opacity="0.05" filter="url(#filter-1)" x="0.64" y="0.642537386" width="400.32" height="28.2881781" rx="14.1440891"></rect>
                            <rect id="Rectangle-2" opacity="0.5" filter="url(#filter-2)" x="11.2" y="0.798850575" width="382.4" height="19.9712644" rx="9.98563218"></rect>
                        </g>
                        <g id="case">
                            <g id="screen">
                                <use fill="black" fill-opacity="1" filter="url(#filter-4)" xlink:href="#path-3"></use>
                                <use fill="#F5F5F5" fill-rule="evenodd" xlink:href="#path-3"></use>
                                <use fill="black" fill-opacity="1" filter="url(#filter-5)" xlink:href="#path-3"></use>
                            </g>
                            <rect id="front" fill="#F5F5F5" x="0" y="261.224138" width="480" height="3.1954023"></rect>
                            <path d="M197.6,261.224138 L283.2,261.224138 L283.2,262.422414 C283.2,263.084203 282.664524,263.62069 282.006272,263.62069 L198.793728,263.62069 C198.13445,263.62069 197.6,263.088817 197.6,262.422414 L197.6,261.224138 Z" id="notch" fill-opacity="0.5" fill="url(#linearGradient-6)"></path>
                            <path d="M76.8,270.011494 C11.5393018,270.011494 0,264.41954 0,264.41954 L240.8,263.62069 L480,264.41954 C480,264.41954 468.491429,270.011494 403.2,270.011494 L240.8,270.011494 L240.8,270.011494 Z" id="bottom" fill="url(#linearGradient-7)"></path>
                        </g>
                        <mask id="mask-9" fill="white">
                            <use xlink:href="#path-8"></use>
                        </mask>
                        <use id="Mask" fill="#D1D5FF" xlink:href="#path-8"></use>
                        <path d="M290.499851,87 C287.984089,87 285.9445,84.9453 285.9445,82.4109 L273,82.4109 C273,73.8303 279.086309,66.6846 287.146098,65.1081 L287.146098,55.9665 L289.826837,55.9665 L289.826837,-3 L291.173163,-3 L291.173163,55.9665 L293.853605,55.9665 L293.853605,65.1081 C301.913691,66.6846 308,73.8303 308,82.4109 L295.0555,82.4109 C295.0555,84.9453 293.015911,87 290.499851,87" id="Fill-193" fill="#8B9FFF" mask="url(#mask-9)"></path>
                        <path d="M150.499851,87 C147.984089,87 145.9445,84.9453 145.9445,82.4109 L133,82.4109 C133,73.8303 139.086309,66.6846 147.146098,65.1081 L147.146098,55.9665 L149.826837,55.9665 L149.826837,-3 L151.173163,-3 L151.173163,55.9665 L153.853605,55.9665 L153.853605,65.1081 C161.913691,66.6846 168,73.8303 168,82.4109 L155.0555,82.4109 C155.0555,84.9453 153.015911,87 150.499851,87" id="Fill-193" fill="#8B9FFF" opacity="0.463881341" mask="url(#mask-9)"></path>
                        <path d="M337.499894,57 C335.702921,57 334.246071,55.56171 334.246071,53.78763 L325,53.78763 C325,47.78121 329.347364,42.77922 335.104355,41.67567 L335.104355,35.27655 L337.019169,35.27655 L337.019169,-6 L337.980831,-6 L337.980831,35.27655 L339.895432,35.27655 L339.895432,41.67567 C345.652636,42.77922 350,47.78121 350,53.78763 L340.753929,53.78763 C340.753929,55.56171 339.297079,57 337.499894,57" id="Fill-193" fill="#8B9FFF" opacity="0.552366395" mask="url(#mask-9)"></path>
                        <g id="Group-25" mask="url(#mask-9)">
                            <g transform="translate(176.000000, 112.000000)">
                                <path d="M84.8574047,147.967888 C81.1384903,143.25962 70.7296459,140.612599 60.3388716,140.282097 L60.3388716,108.208404 L84.633035,108.208404 C87.0724903,108.208404 89.0501556,106.232416 89.0501556,103.79503 C89.0501556,101.357644 87.0724903,99.3816565 84.633035,99.3816565 L60.5828171,99.3816565 L60.5828171,72.4761246 L77.8683152,72.4761246 C80.4257276,72.4761246 82.5062918,70.3973252 82.5062918,67.8420821 L82.5062918,50.1885866 C82.5062918,47.6333435 80.4257276,45.5545441 77.8683152,45.5545441 L38.3923074,45.5545441 C35.8348949,45.5545441 33.7543307,47.6333435 33.7543307,50.1885866 L33.7543307,67.8420821 C33.7543307,70.3973252 35.8348949,72.4761246 38.3923074,72.4761246 L55.2822724,72.4761246 L55.2822724,99.3816565 L31.6275875,99.3816565 C29.1881323,99.3816565 27.2104669,101.357644 27.2104669,103.79503 C27.2104669,106.232416 29.1881323,108.208404 31.6275875,108.208404 L55.921751,108.208404 L55.921751,140.282097 C45.5309767,140.612599 35.1221323,143.25962 31.4032179,147.967386 C29.2513774,148.263283 27.5924475,150.103359 27.5924475,152.33462 C27.5924475,154.772006 29.5701128,156.747994 32.0095681,156.747994 C34.4490233,156.747994 36.4266887,154.772006 36.4266887,152.33462 C36.4266887,151.267386 36.0477198,150.288921 35.4167743,149.525608 C38.3892957,147.057128 45.7252296,144.572599 55.921751,144.253632 L55.921751,148.016535 C54.6026381,148.779848 53.7131907,150.202158 53.7131907,151.834605 C53.7131907,154.271991 55.690856,156.247979 58.1303113,156.247979 C60.5697665,156.247979 62.5474319,154.271991 62.5474319,151.834605 C62.5474319,150.202158 61.6579844,148.779848 60.3388716,148.016535 L60.3388716,144.253632 C70.535393,144.572599 77.8713268,147.057128 80.8438482,149.525608 C80.2129027,150.288921 79.8339339,151.267386 79.8339339,152.33462 C79.8339339,154.772006 81.8115992,156.747994 84.2510545,156.747994 C86.6905097,156.747994 88.6681751,154.772006 88.6681751,152.33462 C88.6681751,150.103359 87.0092451,148.263784 84.8574047,147.967888" id="Fill-86" fill="#8B9FFF"></path>
                                <path d="M72.1837821,42.2445137 C72.166214,42.3463222 72.1441284,42.4345897 72.1220428,42.5273708 C71.8966693,43.4892857 71.6446926,44.385 71.3711323,45.2014742 C70.8982996,46.6092401 70.3948482,47.774772 69.7543658,48.6484195 C69.4582179,49.0586626 69.1269339,49.4032067 68.7559961,49.6810486 C68.0447393,50.2151672 67.1748677,50.4975228 66.0705875,50.4975228 L49.5856926,50.4975228 C48.4327237,50.4975228 47.536249,50.1885866 46.8074241,49.6103343 C46.4716226,49.3455319 46.1759767,49.0235562 45.9019144,48.6484195 C45.2614319,47.774772 44.7574786,46.6092401 44.2851479,45.2014742 C44.0110856,44.385 43.7596109,43.4892857 43.5342374,42.5273708 C43.5121518,42.4345897 43.4900661,42.3463222 43.4724981,42.253541 C40.8884825,30.8891033 41.6569611,10.7465653 47.5141634,4.67817629 C49.9169767,2.18913374 52.8894981,0 57.8281401,0 C61.7418093,0 64.4227004,1.37667173 66.5604864,3.19066869 C67.1216615,3.65858663 67.6426809,4.16161094 68.1421167,4.67817629 C68.3408872,4.88530395 68.5351401,5.11048632 68.7208599,5.34870821 C74.0475058,12.1101976 74.6794553,31.2772796 72.1837821,42.2445137" id="Fill-87" fill="#44372D"></path>
                                <polyline id="Fill-88" fill="#F1C9B1" points="62.2994708 41.3733739 62.2994708 35.7443161 53.4652296 35.7443161 53.4652296 41.3733739 51.2571712 41.5443921 53.4652296 55.7745137 62.2994708 55.7745137 64.5080311 41.5443921 62.2994708 41.3733739"></polyline>
                                <path d="M62.2994708,41.3728723 L53.4652296,37.8266261 L53.4652296,36.7578875 C54.9098288,37.7940274 56.456323,38.4389818 57.8828521,38.4389818 C59.3088794,38.4389818 60.8553735,37.7940274 62.2994708,36.7578875 L62.2994708,41.3733739" id="Fill-89" fill="#E49D7E"></path>
                                <path d="M70.8747082,77.3062614 C73.9004358,86.561307 81.0697237,105.410426 68.6791984,106.796626 C64.6892335,107.242979 58.3074981,108.095562 47.3093696,106.796626 C35.5728794,105.410426 42.0836148,86.5658207 45.1053268,77.3107751 L70.8747082,77.3062614" id="Fill-90" fill="#1B3091"></path>
                                <path d="M67.549821,104.527751 C67.549821,101.846125 65.3743891,99.6730395 62.6909883,99.6730395 C60.0316809,99.6730395 57.874821,101.808009 57.8356693,104.455532 L57.8321556,104.45503 L57.8336615,104.498161 L57.8321556,104.527751 C57.8321556,104.58041 57.8386809,104.632067 57.8401868,104.684225 L59.3781479,158.691383 L64.8995486,158.691383 L66.5880934,107.418009 C67.1894241,106.610061 67.549821,105.612036 67.549821,104.527751" id="Fill-91" fill="#F2C9B2"></path>
                                <path d="M59.2717354,154.259954 C59.2717354,154.259954 59.9182412,158.027872 62.122786,158.027872 C64.3268288,158.027872 64.9733346,154.259954 64.9733346,154.259954 C64.9733346,154.259954 65.5681401,156.450593 65.5681401,157.901991 C65.5681401,160.590638 64.5010039,162.10272 62.122786,162.10272 C59.7440661,162.10272 58.6774319,160.590638 58.6774319,157.901991 C58.6774319,156.450593 59.2717354,154.259954 59.2717354,154.259954" id="Fill-92" fill="#E05844"></path>
                                <path d="M48.2153813,104.527751 C48.2153813,101.846125 50.3908132,99.6730395 53.074214,99.6730395 C55.7335214,99.6730395 57.8903813,101.808009 57.9295331,104.455532 L57.9330467,104.45503 L57.9315409,104.498161 L57.9330467,104.527751 C57.9330467,104.58041 57.9265214,104.632067 57.9250156,104.684225 L56.3870545,158.691383 L50.8656537,158.691383 L49.1771089,107.418009 C48.5757782,106.610061 48.2153813,105.612036 48.2153813,104.527751" id="Fill-93" fill="#F2C9B2"></path>
                                <path d="M56.4934669,154.259954 C56.4934669,154.259954 55.8469611,158.027872 53.6424163,158.027872 C51.4383735,158.027872 50.7918677,154.259954 50.7918677,154.259954 C50.7918677,154.259954 50.1970623,156.450593 50.1970623,157.901991 C50.1970623,160.590638 51.2641984,162.10272 53.6424163,162.10272 C56.0211362,162.10272 57.0877704,160.590638 57.0877704,157.901991 C57.0877704,156.450593 56.4934669,154.259954 56.4934669,154.259954" id="Fill-94" fill="#E05844"></path>
                                <path d="M68.7278872,65.5877508 C72.9196342,61.3097872 74.156428,46.2060182 63.0328132,41.5443921 L57.8828521,55.6230547 L52.7323891,41.5443921 C41.6087743,46.2060182 42.8455681,61.3097872 47.0368132,65.5877508 C47.0368132,65.5877508 46.4460233,72.0653799 42.2874047,84.3837082 L56.409642,84.3837082 L57.8828521,79.0876596 L59.2852879,84.3837082 L73.4777977,84.3837082 C69.319179,72.0653799 68.7278872,65.5877508 68.7278872,65.5877508" id="Fill-95" fill="#1B3091"></path>
                                <path d="M38.7958716,83.2858815 L45.0636654,52.7277812 C45.4672296,51.316003 46.0519961,50.0662158 46.9645331,49.1915653 C48.3062335,47.9051672 51.0242685,47.876079 53.4230661,47.85 L53.5430311,47.848997 L52.724358,41.4305471 C49.3939494,41.6838146 45.7197082,41.5764894 42.5599611,44.6061702 C39.8645136,47.191003 38.8325136,50.6705471 38.2863969,53.9870973 L38.2858949,53.9875988 L38.285393,53.9941185 C38.0881284,55.1952584 33.6589055,82.4478419 33.6589055,82.4478419 C33.6393852,83.4589058 38.7958716,83.2858815 38.7958716,83.2858815" id="Fill-96" fill="#1B3091"></path>
                                <path d="M77.7237549,55.6762158 C77.2398794,51.8927508 76.3639844,47.634848 73.2047393,44.6061702 C70.0454942,41.5764894 66.3712529,41.6838146 63.0408444,41.4305471 L62.2216693,47.848997 L62.3421362,47.85 C64.7404319,47.876079 67.4589689,47.9051672 68.8006693,49.1915653 C69.650463,50.006535 70.2156537,51.1474924 70.6157043,52.4409119 L71.0207743,67.1083587 L73.7453346,75.5554559 C74.0224086,75.6291793 74.3045019,75.6652888 74.5845875,75.6652888 C75.2873113,75.6652888 75.9794942,75.4375988 76.5512101,75.0042857 C77.3518132,74.3984498 78.1890584,73.4570973 78.201607,72.4540578 L77.7237549,55.6762158" id="Fill-97" fill="#1B1A19"></path>
                                <polyline id="Fill-98" fill="#FFFFFE" points="47.6752879 45.0214286 52.5175564 46.8504711 50.6166887 49.4984954 57.8828521 55.6235562 52.724358 41.4305471 47.6752879 45.0214286"></polyline>
                                <polyline id="Fill-99" fill="#FFFFFE" points="68.0904163 45.0214286 63.0333152 41.490228 57.8828521 55.6230547 65.1485136 49.4984954 63.2481479 46.8504711 68.0904163 45.0214286"></polyline>
                                <path d="M68.001572,20.5206839 L68.001572,15.9307751 C68.001572,11.056003 62.3536809,4.89734043 57.8828521,4.89734043 C53.4115214,4.89734043 47.7636304,11.056003 47.7636304,15.9307751 L47.7636304,20.5206839 C46.5213152,20.5206839 45.5149144,21.5086778 45.5149144,22.7273708 L45.5149144,25.0223252 C45.5149144,26.2410182 46.5213152,27.2290122 47.7636304,27.2290122 C47.7636304,32.1037842 53.4115214,38.4389818 57.8828521,38.4389818 C62.3536809,38.4389818 68.001572,32.1037842 68.001572,27.2290122 C69.2438872,27.2290122 70.2502879,26.2410182 70.2502879,25.0223252 L70.2502879,22.7273708 C70.2502879,21.5086778 69.2438872,20.5206839 68.001572,20.5206839" id="Fill-100" fill="#F1C9B1"></path>
                                <path d="M57.8828521,38.4389818 L57.8828521,30.2742401 L55.6341362,29.8329027 C55.6341362,29.8329027 56.2419922,26.1953799 57.8828521,22.7715046 L57.8828521,4.89734043 C62.3536809,4.89734043 68.001572,11.056003 68.001572,15.9307751 L68.001572,20.5206839 C69.2438872,20.5206839 70.2502879,21.5086778 70.2502879,22.7273708 L70.2502879,25.0223252 C70.2502879,26.2410182 69.2438872,27.2290122 68.001572,27.2290122 C68.001572,32.1037842 62.3536809,38.4389818 57.8828521,38.4389818 M63.4047549,21.7624468 C63.3841751,21.7624468 63.3635953,21.7629483 63.3430156,21.7639514 C62.380284,21.7975532 61.6268638,22.6044985 61.6604942,23.5664134 C61.6936226,24.507766 62.4676226,25.2485106 63.4027471,25.2485106 C63.4233268,25.2485106 63.4439066,25.2485106 63.4649883,25.2475076 C64.4277198,25.2139058 65.1811401,24.4069605 65.1475097,23.4450456 C65.1143813,22.503693 64.3403813,21.7624468 63.4047549,21.7624468" id="Fill-101" fill="#E7A689"></path>
                                <path d="M52.3599455,25.2485106 C51.424821,25.2485106 50.650821,24.507766 50.6176926,23.5664134 C50.5840623,22.6044985 51.3374825,21.7975532 52.300214,21.7639514 C52.3207938,21.7629483 52.3413735,21.7624468 52.3619533,21.7624468 C53.2975798,21.7624468 54.0715798,22.503693 54.1047082,23.4450456 C54.1383385,24.4069605 53.3849183,25.2139058 52.4221868,25.2475076 C52.4011051,25.2485106 52.3805253,25.2485106 52.3599455,25.2485106" id="Fill-102" fill="#E49D7E"></path>
                                <path d="M54.1047082,23.0037082 C54.1383385,23.9656231 53.3849183,24.7725684 52.4221868,24.8061702 C51.4594553,24.839772 50.651323,24.0874924 50.6176926,23.125076 C50.5840623,22.1631611 51.3374825,21.3562158 52.300214,21.322614 C53.2629455,21.2890122 54.0710778,22.0417933 54.1047082,23.0037082" id="Fill-103" fill="#2D211A"></path>
                                <path d="M53.3894358,22.5051976 C53.3974669,22.7459271 53.2092374,22.947538 52.9688054,22.9560638 C52.7278716,22.9645897 52.5260895,22.7760182 52.5175564,22.5357903 C52.5090233,22.2950608 52.6972529,22.0934498 52.9381868,22.084924 C53.1791206,22.0768997 53.3809027,22.2649696 53.3894358,22.5051976" id="Fill-104" fill="#FFFFFE"></path>
                                <path d="M54.4831751,21.6721733 C54.1609261,20.9254103 53.3367315,20.3591945 52.4312218,20.2629027 C51.87607,20.2022188 50.8345331,20.2844681 49.9390623,21.4168997 C49.8963969,21.4204103 49.8567432,21.4214134 49.8070506,21.4163982 C49.7076654,21.4073708 49.5691284,21.3752736 49.4341051,21.3175988 C49.1590389,21.2072644 48.9306537,20.9755623 48.9306537,20.9755623 L48.8679105,20.9650304 L48.8428132,21.0377508 C48.8428132,21.0377508 48.8769455,21.1134802 48.9432023,21.22231 C49.0079533,21.3321429 49.1103502,21.4735714 49.2398521,21.5974468 C49.3688521,21.7218237 49.5224475,21.8281459 49.6514475,21.8923404 C49.7156965,21.9249392 49.7739222,21.9480091 49.8170895,21.9630547 L49.8948911,21.9851216 C50.015358,21.9971581 50.1247821,21.9329635 50.1774864,21.8316565 C50.7637588,21.0136778 51.5477977,20.611459 52.3845409,20.701231 C53.1244086,20.7804711 53.820607,21.2508967 54.0771012,21.8467021 C54.1262918,21.9590426 54.2562957,22.0106991 54.3677276,21.9620517 C54.4791595,21.9139058 54.5313619,21.7840122 54.4831751,21.6721733" id="Fill-105" fill="#2D211A"></path>
                                <path d="M63.4027471,25.2485106 C62.4676226,25.2485106 61.6936226,24.507766 61.6604942,23.5664134 C61.6268638,22.6044985 62.380284,21.7975532 63.3430156,21.7639514 C63.3635953,21.7629483 63.3841751,21.7624468 63.4047549,21.7624468 C64.3403813,21.7624468 65.1143813,22.503693 65.1475097,23.4450456 C65.1811401,24.4069605 64.4277198,25.2139058 63.4649883,25.2475076 C63.4439066,25.2485106 63.4233268,25.2485106 63.4027471,25.2485106" id="Fill-106" fill="#DA8162"></path>
                                <path d="M65.1475097,23.0037082 C65.1811401,23.9656231 64.4277198,24.7725684 63.4649883,24.8061702 C62.5022568,24.839772 61.6941245,24.0874924 61.6604942,23.125076 C61.6268638,22.1631611 62.380284,21.3562158 63.3430156,21.322614 C64.3057471,21.2890122 65.1138794,22.0417933 65.1475097,23.0037082" id="Fill-107" fill="#2D211A"></path>
                                <path d="M64.4322374,22.5051976 C64.4402685,22.7459271 64.2520389,22.947538 64.011607,22.9560638 C63.7706732,22.9645897 63.5688911,22.7760182 63.560358,22.5357903 C63.5518249,22.2950608 63.7400545,22.0934498 63.9809883,22.084924 C64.2219222,22.0768997 64.4237043,22.2649696 64.4322374,22.5051976" id="Fill-108" fill="#FFFFFE"></path>
                                <path d="M61.2820272,21.6721733 C61.6042763,20.9254103 62.4284708,20.3591945 63.3339805,20.2629027 C63.8891323,20.2022188 64.9306693,20.2844681 65.8261401,21.4168997 C65.8688054,21.4204103 65.9084591,21.4214134 65.9581518,21.4163982 C66.057537,21.4073708 66.1960739,21.3752736 66.3310973,21.3175988 C66.6061634,21.2072644 66.8345486,20.9755623 66.8345486,20.9755623 L66.8972918,20.9650304 L66.9223891,21.0377508 C66.9223891,21.0377508 66.8882568,21.1134802 66.822,21.22231 C66.757249,21.3321429 66.6548521,21.4735714 66.5248482,21.5974468 C66.3963502,21.7218237 66.2427549,21.8281459 66.1137549,21.8923404 C66.0495058,21.9249392 65.9912802,21.9480091 65.9481128,21.9630547 L65.8703113,21.9851216 C65.7498444,21.9971581 65.6404202,21.9329635 65.587716,21.8316565 C65.0014436,21.0136778 64.2174047,20.611459 63.3806615,20.701231 C62.6407938,20.7804711 61.9445953,21.2508967 61.6881012,21.8467021 C61.6389105,21.9590426 61.5089066,22.0106991 61.3974747,21.9620517 C61.2860428,21.9139058 61.2338405,21.7840122 61.2820272,21.6721733" id="Fill-109" fill="#2D211A"></path>
                                <path d="M63.7561167,16.4974924 C64.0562802,17.5742553 64.6440584,18.9955623 65.6640117,19.8431307 C62.6603696,19.0748024 60.1029572,17.3009271 58.252284,15.2000608 C58.4334864,16.2858511 59.1226576,17.4684347 60.1867821,18.5146049 C59.3786498,18.1570213 58.5926031,17.693617 57.8416926,17.1640122 C56.1672023,15.9899544 54.6789339,14.4673404 53.5746537,12.9226596 C51.8253735,16.4668997 48.9938988,21.4184043 46.7988911,21.4846049 C43.7972568,15.4448024 43.4945837,2.26636778 57.8281401,2.26636778 C72.1611946,2.26636778 70.0108599,17.2347264 68.8844942,21.4846049 C66.3667354,19.5517477 64.4493035,17.5261094 63.7561167,16.4974924" id="Fill-110" fill="#44372D"></path>
                                <path d="M61.4004864,31.9046809 C61.4004864,33.6379331 59.8183541,35.0431915 57.8667899,35.0431915 C55.9152257,35.0431915 54.3330934,33.6379331 54.3330934,31.9046809 L61.4004864,31.9046809" id="Fill-111" fill="#E05844"></path>
                                <path d="M60.3709961,33.0817477 L55.2847821,33.0817477 C55.0629222,33.0817477 54.8832257,32.9022036 54.8832257,32.6805319 L54.8832257,31.9046809 L60.7725525,31.9046809 L60.7725525,32.6805319 C60.7725525,32.9022036 60.592856,33.0817477 60.3709961,33.0817477" id="Fill-112" fill="#FFFFFE"></path>
                                <path d="M60.9567665,35.1048784 C60.7790778,35.1048784 60.6169494,34.9845137 60.5727782,34.8039666 C60.5205759,34.5918237 60.6500778,34.3771733 60.8624008,34.3250152 C66.4219494,32.9563678 68.5456809,27.8559119 68.5662607,27.8042553 C68.6480778,27.6021429 68.8794747,27.503845 69.0817588,27.5855927 C69.2845447,27.6673404 69.3829261,27.897538 69.3011089,28.100152 C69.2107588,28.3253343 67.015249,33.6258967 61.0521362,35.0933435 L60.9567665,35.1048784" id="Fill-113" fill="#626066"></path>
                                <path d="M60.9567665,35.501079 C60.6008872,35.501079 60.2771323,35.2593465 60.1882879,34.8987538 C60.0833813,34.4739666 60.3428872,34.0451672 60.768035,33.9408511 C61.5139261,33.7567933 62.2372296,33.4934954 62.9173658,33.1574772 C63.3093852,32.9638906 63.7847276,33.1243769 63.9784786,33.5160638 C64.1722296,33.9077508 64.0121089,34.38269 63.6195875,34.5767781 C62.8365525,34.9634498 62.0043268,35.2668693 61.1470039,35.4780091 C61.0832568,35.4935562 61.0195097,35.501079 60.9567665,35.501079" id="Fill-114" fill="#3B3940"></path>
                                <path d="M57.8682957,0.996519757 C51.3384864,0.996519757 45.610786,6.3131307 45.610786,12.3744985 L45.610786,21.3040578 C45.610786,21.5879179 45.8421829,21.8191185 46.126284,21.8191185 C46.4103852,21.8191185 46.6412802,21.5879179 46.6412802,21.3040578 L46.6412802,12.3744985 C46.6412802,6.86179331 51.8876148,2.02613982 57.8682957,2.02613982 C63.8489767,2.02613982 69.0953113,6.86179331 69.0953113,12.3744985 L69.0953113,21.3090729 C69.0953113,21.5929331 69.3267082,21.8241337 69.6103074,21.8241337 C69.8944086,21.8241337 70.1258054,21.5929331 70.1258054,21.3090729 L70.1258054,12.3744985 C70.1258054,6.3131307 64.3981051,0.996519757 57.8682957,0.996519757" id="Fill-115" fill="#626066"></path>
                                <path d="M45.2925525,27.922614 C44.726358,27.922614 44.2439883,27.4898024 44.1937938,26.9155623 L43.8820856,23.3572796 C43.8288794,22.7499392 44.2786226,22.2148176 44.8859767,22.1616565 C45.4928288,22.1084954 46.0294086,22.5578571 46.0826148,23.164696 L46.393821,26.7234802 C46.4470272,27.3303191 45.997786,27.8654407 45.38993,27.9186018 L45.2925525,27.922614" id="Fill-116" fill="#8B9FFF"></path>
                                <path d="M47.0152296,29.5370061 C46.449035,29.5370061 45.9671673,29.1041945 45.9164708,28.5299544 L45.2980739,21.4685562 C45.2448677,20.8612158 45.6946109,20.3265957 46.301965,20.2729331 C46.9058054,20.2222796 47.4448949,20.6691337 47.4986031,21.2764742 L48.117,28.3378723 C48.1697043,28.9447112 47.720463,29.4798328 47.112607,29.5329939 L47.0152296,29.5370061" id="Fill-117" fill="#626066"></path>
                                <path d="M70.4405253,27.922614 L70.3431479,27.9186018 C69.7352918,27.8654407 69.2860506,27.3303191 69.3392568,26.7234802 L69.650965,23.164696 C69.7041712,22.5578571 70.2437626,22.1079939 70.8471012,22.1616565 C71.4544553,22.2148176 71.9041984,22.7499392 71.8509922,23.3572796 L71.539284,26.9155623 C71.4890895,27.4898024 71.0067198,27.922614 70.4405253,27.922614" id="Fill-118" fill="#8B9FFF"></path>
                                <path d="M68.7178482,29.5370061 L68.6204708,29.5329939 C68.0126148,29.4798328 67.5633735,28.9447112 67.6160778,28.3378723 L68.2344747,21.2764742 C68.2876809,20.6691337 68.8227549,20.2217781 69.4311128,20.2729331 C70.0384669,20.3265957 70.4882101,20.8612158 70.4350039,21.4685562 L69.816607,28.5299544 C69.7659105,29.1041945 69.2840428,29.5370061 68.7178482,29.5370061" id="Fill-119" fill="#626066"></path>
                                <path d="M124.942272,84.8942553 L3.97540856,84.8942553 C1.77989883,84.8942553 0,86.6726444 0,88.8662918 C0,91.0599392 1.77989883,92.8383283 3.97540856,92.8383283 L6.21157588,92.8383283 L6.21157588,164.750243 L12.8372568,164.750243 L12.8372568,92.8383283 L116.079922,92.8383283 L116.079922,164.750243 L122.705603,164.750243 L122.705603,92.8383283 L124.942272,92.8383283 C127.137782,92.8383283 128.917681,91.0599392 128.917681,88.8662918 C128.917681,86.6726444 127.137782,84.8942553 124.942272,84.8942553" id="Fill-120" fill="url(#linearGradient-10)"></path>
                                <path d="M111.608089,84.8942553 L60.9773463,84.8942553 C60.3213035,84.8942553 59.7897432,84.3631459 59.7897432,83.7076596 C59.7897432,83.0526748 60.3213035,82.5215653 60.9773463,82.5215653 L111.608089,82.5215653 C112.26363,82.5215653 112.795191,83.0526748 112.795191,83.7076596 C112.795191,84.3631459 112.26363,84.8942553 111.608089,84.8942553" id="Fill-121" fill="#9B9B9B"></path>
                                <path d="M110.787409,82.6068237 L61.7975253,82.6068237 C60.6887276,82.6068237 59.7897432,81.7091033 59.7897432,80.6007447 L59.7897432,46.1658967 C59.7897432,45.057538 60.6887276,44.1598176 61.7975253,44.1598176 L110.787409,44.1598176 C111.896708,44.1598176 112.795191,45.057538 112.795191,46.1658967 L112.795191,80.6007447 C112.795191,81.7091033 111.896708,82.6068237 110.787409,82.6068237" id="Fill-122" fill="#E5E6E3"></path>
                                <path d="M90.6267665,62.1628723 C90.6267665,64.5541185 88.6862451,66.4929939 86.2924669,66.4929939 C83.8991907,66.4929939 81.9586693,64.5541185 81.9586693,62.1628723 C81.9586693,59.7711246 83.8991907,57.8322492 86.2924669,57.8322492 C88.6862451,57.8322492 90.6267665,59.7711246 90.6267665,62.1628723" id="Fill-123" fill="#D7D7D7"></path>
                                <path d="M69.6354047,82.6068237 L61.9983035,82.6068237 C60.7785759,82.6068237 59.7897432,81.6193313 59.7897432,80.4006383 L59.7897432,46.3665046 C59.7897432,45.1478116 60.7785759,44.1598176 61.9983035,44.1598176 L100.741973,44.1598176 C83.8369494,49.1679939 71.1974591,64.2827964 69.6354047,82.6068237" id="Fill-124" fill="#EBECE9"></path>
                                <path d="M40.0371829,84.8942553 L32.1661751,84.8942553 C31.8971323,84.8942553 31.6828016,84.6555319 31.7259689,84.390228 C32.0216148,82.5611854 33.8682724,80.7401672 36.10193,80.7401672 C38.3355875,80.7401672 40.1817432,82.5611854 40.4773891,84.390228 C40.5205564,84.6555319 40.3062257,84.8942553 40.0371829,84.8942553" id="Fill-125" fill="#84C9BC"></path>
                                <path d="M41.4345992,82.2693009 C40.2976926,80.5480851 38.7793074,79.1633891 36.10193,79.1633891 C34.4359728,79.1633891 32.9667782,79.5239818 32.0938949,80.3208967 C31.9347782,80.3991337 31.7972451,80.5250152 31.7109105,80.6960334 L30.6713813,82.7507599 C30.4600623,83.1685258 30.6277121,83.6785714 31.0458327,83.8897112 C31.1688093,83.9518997 31.2993152,83.9809878 31.4278132,83.9809878 C31.7380156,83.9809878 32.0366732,83.8109726 32.185751,83.5155775 L32.4783852,82.9378267 L32.5054903,82.9363222 L32.3724747,83.1996201 C32.1310389,83.6770669 32.3222802,84.2598328 32.8006342,84.5010638 C32.940677,84.5717781 33.0897549,84.6053799 33.2373268,84.6053799 C33.5911984,84.6053799 33.9325214,84.4107903 34.1031829,84.073769 L34.2186304,83.846079 C34.20307,84.213693 34.3978249,84.5742857 34.7481829,84.7513222 C34.8882257,84.8220365 35.0373035,84.8556383 35.1843735,84.8556383 C35.5387471,84.8556383 35.88007,84.6610486 36.0507315,84.3235258 L36.2484981,83.9328419 C36.3363385,84.0567173 36.451284,84.1640426 36.5968482,84.2372644 C36.737393,84.3079787 36.8864708,84.3415805 37.0335409,84.3415805 C37.3874125,84.3415805 37.7287354,84.1469909 37.8998988,83.8099696 L38.8044047,82.0215502 C40.7996381,84.1936322 42.1348132,83.3295137 41.4345992,82.2693009" id="Fill-126" fill="#F1C9B1"></path>
                            </g>
                        </g>
                    </g>
                    <g id="Group-23" transform="translate(360.000000, 186.000000)">
                        <circle id="Oval-2-Copy" fill="#2E25CF" cx="18" cy="18" r="18"></circle>
                        <path d="M16.0006851,14.2276802 C15.9816824,13.684694 16.3603408,13.4478225 16.8404371,13.7023694 L18.9626894,14.8250051 C19.4419413,15.0781993 20.2291154,15.4967744 20.7076329,15.749801 L22.8300567,16.8717024 C23.3092471,17.126816 23.3257918,17.5710237 22.8628864,17.8605963 L17.0946874,21.4689207 C16.6304232,21.7593434 16.2374848,21.5505905 16.2202939,21.006471 L16.1424441,18.6055765 C16.1250202,18.0641106 16.094257,17.1723591 16.0783634,16.6293089 L16.0006851,14.2276802 Z" id="Fill-5-Copy-3" fill="#FFFFFF"></path>
                    </g>
                </g>
                <g id="Group-37" transform="translate(1042.000000, 969.500000) scale(-1, 1) translate(-1042.000000, -969.500000) translate(1010.000000, 949.000000)">
                    <path d="M0.438929134,8.37665432 L0.438929134,22.5494938 C0.438929134,27.0225432 4.04862992,30.6482593 8.50192126,30.6482593 L11.1027402,30.6482593 L11.1027402,40.5439383 L19.2055433,30.6482593 L55.6099528,30.6482593 C60.0627402,30.6482593 63.6729449,27.0225432 63.6729449,22.5494938 L63.6729449,8.37665432 C63.6729449,3.90411111 60.0627402,0.277888889 55.6099528,0.277888889 L8.50192126,0.277888889 C4.04862992,0.277888889 0.438929134,3.90411111 0.438929134,8.37665432" id="Fill-179" fill="#2817CB"></path>
                    <path d="M21.0114646,14.6402346 C21.0114646,16.4518272 19.5495433,17.9202346 17.7459528,17.9202346 C15.9428661,17.9202346 14.4804409,16.4518272 14.4804409,14.6402346 C14.4804409,12.8291481 15.9428661,11.3602346 17.7459528,11.3602346 C19.5495433,11.3602346 21.0114646,12.8291481 21.0114646,14.6402346" id="Fill-183" fill="#FFFFFE"></path>
                    <path d="M34.3214488,14.6402346 C34.3214488,16.4518272 32.8595276,17.9202346 31.055937,17.9202346 C29.2523465,17.9202346 27.7904252,16.4518272 27.7904252,14.6402346 C27.7904252,12.8291481 29.2523465,11.3602346 31.055937,11.3602346 C32.8595276,11.3602346 34.3214488,12.8291481 34.3214488,14.6402346" id="Fill-184" fill="#FFFFFE"></path>
                    <path d="M47.6309291,14.6402346 C47.6309291,16.4518272 46.1690079,17.9202346 44.3654173,17.9202346 C42.5618268,17.9202346 41.0999055,16.4518272 41.0999055,14.6402346 C41.0999055,12.8291481 42.5618268,11.3602346 44.3654173,11.3602346 C46.1690079,11.3602346 47.6309291,12.8291481 47.6309291,14.6402346" id="Fill-185" fill="#FFFFFE"></path>
                </g>
            </g>
        </g>
    </g>
</svg>